# xmcd
#
# Track frame offsets:
#	150
#	13244
#	25942
#	41921
#	51817
#	66499
#	80788
#	94849
#	109953
#
# Disc length: 1711 seconds
#
# Revision: 1
# Processed by: cddbd v1.5.1PL0 Copyright (c) Steve Scherf et al.
# Submitted via: audiograbber 1.83.01
#
DISCID=8006ad09
DTITLE=Eddy and Call Again - Live 1996
DYEAR=2005
DGENRE=Country
TTITLE0=On The Road Again
TTITLE1=By My Baby Tonight
TTITLE2=Livin' On Love
TTITLE3=If I Could Make A Livin'
TTITLE4=For The Hood Times
TTITLE5=Cowboy Love
TTITLE6=Thank God For The Radio
TTITLE7=Achy Breaky Heart
TTITLE8=The River
EXTD=Country Music from AUSTRIA
EXTT0=
EXTT1=
EXTT2=
EXTT3=
EXTT4=
EXTT5=
EXTT6=
EXTT7=
EXTT8=
PLAYORDER=
